<svg xmlns="http://www.w3.org/2000/svg" viewBox="0 0 760 668" width="760" height="668" font-family="-apple-system,Segoe UI,Helvetica,Arial,sans-serif">
<rect width="760" height="668" rx="10" fill="#ffffff" stroke="#d9dee5"/>
<text x="230" y="24" font-size="13" font-weight="700" fill="#141a21">Zero-shot accuracy on 300 tweets (axis from 30%)</text>
<text x="744" y="24" font-size="11" fill="#5a6573" text-anchor="end">median per tweet</text>
<line x1="230.0" x2="230.0" y1="34" y2="592" stroke="#eef1f5"/>
<text x="230.0" y="608" font-size="10" fill="#5a6573" text-anchor="middle">30%</text>
<line x1="314.8" x2="314.8" y1="34" y2="592" stroke="#eef1f5"/>
<text x="314.8" y="608" font-size="10" fill="#5a6573" text-anchor="middle">40%</text>
<line x1="399.6" x2="399.6" y1="34" y2="592" stroke="#eef1f5"/>
<text x="399.6" y="608" font-size="10" fill="#5a6573" text-anchor="middle">50%</text>
<line x1="484.4" x2="484.4" y1="34" y2="592" stroke="#eef1f5"/>
<text x="484.4" y="608" font-size="10" fill="#5a6573" text-anchor="middle">60%</text>
<line x1="569.2" x2="569.2" y1="34" y2="592" stroke="#eef1f5"/>
<text x="569.2" y="608" font-size="10" fill="#5a6573" text-anchor="middle">70%</text>
<line x1="654.0" x2="654.0" y1="34" y2="592" stroke="#eef1f5"/>
<text x="654.0" y="608" font-size="10" fill="#5a6573" text-anchor="middle">80%</text>
<text x="222" y="55" font-size="12" fill="#141a21" text-anchor="end">Decider 4B v2</text>
<rect x="230" y="43" width="381.6" height="17" rx="3" fill="#B5536B" fill-opacity="0.92"/>
<text x="616.6" y="55" font-size="11" font-weight="600" fill="#141a21">75.0%</text>
<text x="744" y="55" font-size="11" fill="#5a6573" text-anchor="end">258 ms</text>
<text x="222" y="79" font-size="12" fill="#141a21" text-anchor="end">Decider 2B</text>
<rect x="230" y="67" width="373.1" height="17" rx="3" fill="#B5536B" fill-opacity="0.92"/>
<text x="608.1" y="79" font-size="11" font-weight="600" fill="#141a21">74.0%</text>
<text x="744" y="79" font-size="11" fill="#5a6573" text-anchor="end">143 ms</text>
<text x="222" y="103" font-size="12" fill="#5a6573" text-anchor="end">Gemma 4 26B-A4B</text>
<rect x="230" y="91" width="373.1" height="17" rx="3" fill="#7A4E9E" fill-opacity="0.5"/>
<text x="608.1" y="103" font-size="11" font-weight="600" fill="#141a21">74.0%</text>
<text x="744" y="103" font-size="11" fill="#5a6573" text-anchor="end">660 ms</text>
<text x="222" y="127" font-size="12" fill="#141a21" text-anchor="end">Jev (hosted)</text>
<rect x="230" y="115" width="370.3" height="17" rx="3" fill="#1F2937" fill-opacity="0.92"/>
<text x="605.3" y="127" font-size="11" font-weight="600" fill="#141a21">73.7%</text>
<text x="744" y="127" font-size="11" fill="#5a6573" text-anchor="end">260 ms</text>
<text x="222" y="151" font-size="12" fill="#141a21" text-anchor="end">SemIf · Qwen3.5-9B (variant)</text>
<rect x="230" y="139" width="364.6" height="17" rx="3" fill="#2E8C82" fill-opacity="0.92"/>
<text x="599.6" y="151" font-size="11" font-weight="600" fill="#141a21">73.0%</text>
<text x="744" y="151" font-size="11" fill="#5a6573" text-anchor="end">320 ms</text>
<text x="222" y="175" font-size="12" fill="#5a6573" text-anchor="end">Gemma 4 26B · bare prompt</text>
<rect x="230" y="163" width="359.0" height="17" rx="3" fill="#7A4E9E" fill-opacity="0.5"/>
<text x="594.0" y="175" font-size="11" font-weight="600" fill="#141a21">72.3%</text>
<text x="744" y="175" font-size="11" fill="#5a6573" text-anchor="end">388 ms</text>
<text x="222" y="199" font-size="12" fill="#141a21" text-anchor="end">SemIf · Qwen3.5-4B</text>
<rect x="230" y="187" width="353.3" height="17" rx="3" fill="#2E8C82" fill-opacity="0.92"/>
<text x="588.3" y="199" font-size="11" font-weight="600" fill="#141a21">71.7%</text>
<text x="744" y="199" font-size="11" fill="#5a6573" text-anchor="end">189 ms</text>
<text x="222" y="223" font-size="12" fill="#5a6573" text-anchor="end">Gemma 4 12B</text>
<rect x="230" y="211" width="350.5" height="17" rx="3" fill="#7A4E9E" fill-opacity="0.5"/>
<text x="585.5" y="223" font-size="11" font-weight="600" fill="#141a21">71.3%</text>
<text x="744" y="223" font-size="11" fill="#5a6573" text-anchor="end">2.3 s</text>
<text x="222" y="247" font-size="12" fill="#5a6573" text-anchor="end">Qwen 3.8 27B · bare prompt</text>
<rect x="230" y="235" width="347.7" height="17" rx="3" fill="#7A4E9E" fill-opacity="0.5"/>
<text x="582.7" y="247" font-size="11" font-weight="600" fill="#141a21">71.0%</text>
<text x="744" y="247" font-size="11" fill="#5a6573" text-anchor="end">2.9 s</text>
<text x="222" y="271" font-size="12" fill="#5a6573" text-anchor="end">Gemma 4 12B · bare prompt</text>
<rect x="230" y="259" width="336.4" height="17" rx="3" fill="#7A4E9E" fill-opacity="0.5"/>
<text x="571.4" y="271" font-size="11" font-weight="600" fill="#141a21">69.7%</text>
<text x="744" y="271" font-size="11" fill="#5a6573" text-anchor="end">1.3 s</text>
<text x="222" y="295" font-size="12" fill="#141a21" text-anchor="end">Kev 9B</text>
<rect x="230" y="283" width="330.7" height="17" rx="3" fill="#B7791F" fill-opacity="0.92"/>
<text x="565.7" y="295" font-size="11" font-weight="600" fill="#141a21">69.0%</text>
<text x="744" y="295" font-size="11" fill="#5a6573" text-anchor="end">448 ms</text>
<text x="222" y="319" font-size="12" fill="#141a21" text-anchor="end">openvons · Qwen3-4B</text>
<rect x="230" y="307" width="327.9" height="17" rx="3" fill="#2E8C82" fill-opacity="0.92"/>
<text x="562.9" y="319" font-size="11" font-weight="600" fill="#141a21">68.7%</text>
<text x="744" y="319" font-size="11" fill="#5a6573" text-anchor="end">301 ms</text>
<text x="222" y="343" font-size="12" fill="#5a6573" text-anchor="end">Qwen 3.8 27B</text>
<rect x="230" y="331" width="308.1" height="17" rx="3" fill="#7A4E9E" fill-opacity="0.5"/>
<text x="543.1" y="343" font-size="11" font-weight="600" fill="#141a21">66.3%</text>
<text x="744" y="343" font-size="11" fill="#5a6573" text-anchor="end">3.3 s</text>
<text x="222" y="367" font-size="12" fill="#141a21" text-anchor="end">GLiNER2.5-Decide</text>
<rect x="230" y="355" width="285.5" height="17" rx="3" fill="#1D5E8C" fill-opacity="0.92"/>
<text x="520.5" y="367" font-size="11" font-weight="600" fill="#141a21">63.7%</text>
<text x="744" y="367" font-size="11" fill="#5a6573" text-anchor="end">62 ms</text>
<text x="222" y="391" font-size="12" fill="#141a21" text-anchor="end">Kev 4B</text>
<rect x="230" y="379" width="285.5" height="17" rx="3" fill="#B7791F" fill-opacity="0.92"/>
<text x="520.5" y="391" font-size="11" font-weight="600" fill="#141a21">63.7%</text>
<text x="744" y="391" font-size="11" fill="#5a6573" text-anchor="end">261 ms</text>
<text x="222" y="415" font-size="12" fill="#141a21" text-anchor="end">Laya</text>
<rect x="230" y="403" width="282.7" height="17" rx="3" fill="#1D5E8C" fill-opacity="0.92"/>
<text x="517.7" y="415" font-size="11" font-weight="600" fill="#141a21">63.3%</text>
<text x="744" y="415" font-size="11" fill="#5a6573" text-anchor="end">49 ms</text>
<text x="222" y="439" font-size="12" fill="#141a21" text-anchor="end">GLiNER2.5-Decide-1B</text>
<rect x="230" y="427" width="279.8" height="17" rx="3" fill="#1D5E8C" fill-opacity="0.92"/>
<text x="514.8" y="439" font-size="11" font-weight="600" fill="#141a21">63.0%</text>
<text x="744" y="439" font-size="11" fill="#5a6573" text-anchor="end">73 ms</text>
<text x="222" y="463" font-size="12" fill="#141a21" text-anchor="end">Laya multilingual</text>
<rect x="230" y="451" width="279.8" height="17" rx="3" fill="#1D5E8C" fill-opacity="0.92"/>
<text x="514.8" y="463" font-size="11" font-weight="600" fill="#141a21">63.0%</text>
<text x="744" y="463" font-size="11" fill="#5a6573" text-anchor="end">20 ms</text>
<text x="222" y="487" font-size="12" fill="#141a21" text-anchor="end">Clef-flash</text>
<rect x="230" y="475" width="251.6" height="17" rx="3" fill="#C2570C" fill-opacity="0.92"/>
<text x="486.6" y="487" font-size="11" font-weight="600" fill="#141a21">59.7%</text>
<text x="744" y="487" font-size="11" fill="#5a6573" text-anchor="end">477 ms</text>
<text x="222" y="511" font-size="12" fill="#141a21" text-anchor="end">Kev 0.8B</text>
<rect x="230" y="499" width="243.1" height="17" rx="3" fill="#B7791F" fill-opacity="0.92"/>
<text x="478.1" y="511" font-size="11" font-weight="600" fill="#141a21">58.7%</text>
<text x="744" y="511" font-size="11" fill="#5a6573" text-anchor="end">45 ms</text>
<text x="222" y="535" font-size="12" fill="#141a21" text-anchor="end">Embeddings (nomic)</text>
<rect x="230" y="523" width="226.1" height="17" rx="3" fill="#6F7C8C" fill-opacity="0.92"/>
<text x="461.1" y="535" font-size="11" font-weight="600" fill="#141a21">56.7%</text>
<text x="744" y="535" font-size="11" fill="#5a6573" text-anchor="end">13 ms</text>
<text x="222" y="559" font-size="12" fill="#141a21" text-anchor="end">CLM 8B</text>
<rect x="230" y="547" width="183.7" height="17" rx="3" fill="#8A6D3B" fill-opacity="0.92"/>
<text x="418.7" y="559" font-size="11" font-weight="600" fill="#141a21">51.7%</text>
<text x="744" y="559" font-size="11" fill="#5a6573" text-anchor="end">167 ms</text>
<text x="222" y="583" font-size="12" fill="#141a21" text-anchor="end">Qwen3-8B raw embeddings</text>
<rect x="230" y="571" width="36.7" height="17" rx="3" fill="#6F7C8C" fill-opacity="0.92"/>
<text x="271.7" y="583" font-size="11" font-weight="600" fill="#141a21">34.3%</text>
<text x="744" y="583" font-size="11" fill="#5a6573" text-anchor="end">166 ms</text>
<line x1="603.1" x2="603.1" y1="36" y2="592" stroke="#5a6573" stroke-dasharray="4 3" stroke-opacity="0.7"/>
<rect x="24" y="621" width="10" height="10" rx="2" fill="#1F2937"/><text x="38" y="630" font-size="11" fill="#5a6573">Hosted Jev (reference)</text>
<rect x="192" y="621" width="10" height="10" rx="2" fill="#B5536B"/><text x="206" y="630" font-size="11" fill="#5a6573">Full fine-tune</text>
<rect x="310" y="621" width="10" height="10" rx="2" fill="#2E8C82"/><text x="324" y="630" font-size="11" fill="#5a6573">Inference technique</text>
<rect x="459" y="621" width="10" height="10" rx="2" fill="#B7791F"/><text x="473" y="630" font-size="11" fill="#5a6573">LoRA + pointer</text>
<rect x="577" y="621" width="10" height="10" rx="2" fill="#1D5E8C"/><text x="591" y="630" font-size="11" fill="#5a6573">Encoder + head</text>
<rect x="24" y="639" width="10" height="10" rx="2" fill="#8A6D3B"/><text x="38" y="648" font-size="11" fill="#5a6573">Contrastive bi-encoder</text>
<rect x="192" y="639" width="10" height="10" rx="2" fill="#C2570C"/><text x="206" y="648" font-size="11" fill="#5a6573">Backbone + joint head</text>
<rect x="354" y="639" width="10" height="10" rx="2" fill="#6F7C8C"/><text x="368" y="648" font-size="11" fill="#5a6573">Embedding baseline</text>
<rect x="497" y="639" width="10" height="10" rx="2" fill="#7A4E9E"/><text x="511" y="648" font-size="11" fill="#5a6573">LLM (LM Studio)</text>
</svg>